<svg xmlns="http://www.w3.org/2000/svg" version="1.1" xmlns:xlink="http://www.w3.org/1999/xlink" xmlns:svgjs="http://svgjs.dev/svgjs" width="2000" height="1247" viewBox="0 0 2000 1247"><g transform="matrix(1,0,0,1,-1.2121212121212466,0.504858299595071)"><svg viewBox="0 0 396 247" data-background-color="#f2f2f2" preserveAspectRatio="xMidYMid meet" height="1247" width="2000" xmlns="http://www.w3.org/2000/svg" xmlns:xlink="http://www.w3.org/1999/xlink"><g id="tight-bounds" transform="matrix(1,0,0,1,0.2400000000000091,-0.09999999999999432)"><svg viewBox="0 0 395.52 247.2" height="247.2" width="395.52"><g><svg></svg></g><g><svg viewBox="0 0 395.52 247.2" height="247.2" width="395.52"><g transform="matrix(1,0,0,1,75.54432,80.49362503725783)"><svg viewBox="0 0 244.43135999999998 86.21274992548433" height="86.21274992548433" width="244.43135999999998"><g><svg viewBox="0 0 244.43135999999998 86.21274992548433" height="86.21274992548433" width="244.43135999999998"><g><svg viewBox="0 0 244.43136 86.21274992548435" height="86.21274992548433" width="244.43135999999998"><g><svg viewBox="0 0 244.43136 86.21274992548435" height="86.21274992548435" width="244.43136"><g><svg viewBox="0 0 244.43136 86.21274992548435" height="86.21274992548435" width="244.43136"><g><svg viewBox="0 0 244.43136 86.21274992548435" height="86.21274992548435" width="244.43136"><g transform="matrix(1,0,0,1,0,0)"><svg width="244.43136" viewBox="0.45 -35.5 100.64 35.5" height="86.21274992548435" data-palette-color="#f2f2f2"><path d="M23.4-19.85L17.25-35.3 21.5-35.3 26.2-22.95 30.95-35.3 35.2-35.3 29.05-19.85 35.15-5.2 47.15-35.5 52.05-35.5 37.2 0 33.3 0 26.25-16.75 19.15 0 15.25 0 0.45-35.5 5.3-35.5 17.35-5.2 23.4-19.85ZM55.8 0L52.1 0 52.1-5.6 55.8-5.6 55.8 0ZM75.55 0L63.25 0 63.25-35.5 75.55-35.5Q81.25-35.5 85.07-33.13 88.9-30.75 90.8-26.73 92.7-22.7 92.7-17.8L92.7-17.8Q92.7-12.4 90.6-8.4 88.5-4.4 84.65-2.2 80.8 0 75.55 0L75.55 0ZM88.15-17.8L88.15-17.8Q88.15-21.8 86.67-24.9 85.2-28 82.4-29.75 79.6-31.5 75.55-31.5L75.55-31.5 67.75-31.5 67.75-4 75.55-4Q79.65-4 82.45-5.83 85.25-7.65 86.7-10.78 88.15-13.9 88.15-17.8ZM101.09 0L97.39 0 97.39-5.6 101.09-5.6 101.09 0Z" opacity="1" transform="matrix(1,0,0,1,0,0)" fill="#f2f2f2" class="undefined-text-0" data-fill-palette-color="primary" id="text-0"></path></svg></g></svg></g></svg></g></svg></g></svg></g></svg></g></svg></g><path d="M217.081 74.494L217.081 20.499 10.879 20.499 10.879 226.701 217.081 226.701 217.081 172.706 209.306 172.706 209.306 218.926 18.653 218.926 18.653 28.274 209.306 28.274 209.306 74.494Z" fill="#f2f2f2" stroke="transparent" data-fill-palette-color="primary"></path></svg></g><defs></defs></svg><rect width="395.52" height="247.2" fill="none" stroke="none" visibility="hidden"></rect></g></svg></g></svg>